<svg t="1607826279431" class="icon" viewBox="0 0 1024 1024" version="1.1" xmlns="http://www.w3.org/2000/svg" p-id="10849" width="200" height="200"><path d="M96 264h832c17.674 0 32-14.326 32-32V152c0-17.674-14.326-32-32-32H96C78.326 120 64 134.326 64 152v80c0 17.674 14.326 32 32 32z m0 320h832c17.674 0 32-14.326 32-32v-80c0-17.674-14.326-32-32-32H96c-17.674 0-32 14.326-32 32v80c0 17.674 14.326 32 32 32z m0 320h832c17.674 0 32-14.326 32-32v-80c0-17.674-14.326-32-32-32H96c-17.674 0-32 14.326-32 32v80c0 17.674 14.326 32 32 32z" p-id="10850" fill="#606266"></path></svg>