<svg t="1607853647473" class="icon" viewBox="0 0 1024 1024" version="1.1" xmlns="http://www.w3.org/2000/svg" p-id="2246" width="200" height="200"><path d="M512 85.333333c77.952 0 150.101333 19.498667 216.405333 58.453334a404.394667 404.394667 0 0 1 151.808 151.808A419.626667 419.626667 0 0 1 938.666667 512a419.626667 419.626667 0 0 1-58.453334 216.405333 404.394667 404.394667 0 0 1-151.808 151.808A419.626667 419.626667 0 0 1 512 938.666667a419.626667 419.626667 0 0 1-216.405333-58.453334 412.032 412.032 0 0 1-151.808-152.832A417.706667 417.706667 0 0 1 85.333333 512a417.706667 417.706667 0 0 1 58.453334-215.381333A419.925333 419.925333 0 0 1 296.618667 143.786667 417.706667 417.706667 0 0 1 512 85.333333z m109.738667 256.426667L512 451.498667 402.261333 341.76 341.76 402.261333 451.498667 512 341.76 621.738667l60.501333 60.501333L512 572.501333l109.738667 109.738667 60.501333-60.501333L572.501333 512l109.738667-109.738667-60.501333-60.501333z" p-id="2247" fill="#606266"></path></svg>