<svg t="1607823681181" class="icon" viewBox="0 0 1024 1024" version="1.1" xmlns="http://www.w3.org/2000/svg" p-id="9885" width="200" height="200"><path d="M785.3 112.9h-547c-6.2 0-12.1 3.1-15.5 8.4L67.3 350c-4.5 6.8-4 15.9 1.1 22.1l428.9 529.6c7.5 9.2 21.4 9.2 28.9 0l428.9-529.6c5.1-6.4 5.6-15.2 1.1-22.1L801 121.3c-3.6-5.3-9.3-8.4-15.7-8.4z m-30 74.6l98.4 149.2H747.4L667 187.5h88.3z m-314.1 0h141l80.3 149.2H361l80.2-149.2z m-173 0h88.3l-80.3 149.2H169.9l98.3-149.2z m-66.8 223.8h79.9L387.4 660l-186-248.7z m159.9 0h300.9L511.8 789.4 361.3 411.3z m274.8 248.6l106-248.7H822L636.1 659.9z" p-id="9886" fill="#606266"></path></svg>