<svg t="1607826817361" class="icon" viewBox="0 0 1024 1024" version="1.1" xmlns="http://www.w3.org/2000/svg" p-id="17963" width="200" height="200"><path d="M1006.02368 503.87456c-8.3712 10.8288-25.10848 11.70944-37.42208 2.02752l-456.59136-362.2144-456.55552 362.20928c-12.38016 9.68192-29.14816 8.80128-37.4272-2.02752-8.36608-10.76224-5.18144-27.37152 7.1424-37.02272l469.12-372.20864c0.31232-0.24064 0.73728-0.3072 1.03936-0.55296 4.59776-4.0448 10.30144-6.03648 16.67584-5.79072 6.3232-0.24576 12.07808 1.74592 16.6144 5.79072 0.3328 0.24576 0.7936 0.31232 1.08032 0.55296l199.08096 157.952v-25.04192c0-23.69536 19.03104-42.97728 42.41408-42.97728h63.75424c23.45472 0 42.44992 19.28192 42.44992 42.97728v128.768c0 4.3264-1.31072 8.27904-2.47296 12.23168l123.92448 98.304c12.29824 9.6512 15.45216 26.26048 7.17312 37.02272zM452.81792 291.88096s40.8576-21.51424 63.6928-21.42208c25.7792 0.14848 63.6416 21.42208 63.6416 21.42208l296.98048 236.11904h0.27136v321.8688c0 47.36-38.08768 85.8624-84.96128 85.8624H633.2416v-257.54112c0-35.54816-28.5952-64.36864-63.75424-64.36864H452.81792c-35.15392 0-53.12 28.82048-53.12 64.36864v257.54112H240.49664c-46.86336 0-84.99712-38.5024-84.99712-85.8624v-321.8688h0.67584l296.64256-236.11904z" p-id="17964" fill="#606266"></path></svg>